# xmcd CD database file
# Copyright (C) 1997 Ti Kan
# 
# Track frame offsets:
#     183
#     13148
#     25263
#     38383
#     53633
#     67748
#     81615
#     94190
#     107568
#     121360
#     136640
#     151583
#     163855
#     175210
# 
# Disc length: 2511 seconds
# 
# Revision: 1
# Processed by: cddbd v1.4b41PL1 Copyright (c) Steve Scherf et al.
# Submitted via: DiscPlay 4.0.4
# 
DISCID=a309cd0e
DTITLE=Muddy Waters - The Essential Recordings
DYEAR=1900
DGENRE=
TTITLE0=Just Want To Make Love To You
TTITLE1=Long Distance Call
TTITLE2=Louisiana Blues
TTITLE3=Honey Bee
TTITLE4=Rollin' Stone
TTITLE5=I'm Ready
TTITLE6=Hoochie Coochie Man
TTITLE7=She Moves Me
TTITLE8=I Want You To Love Me
TTITLE9=Standing Around Crying
TTITLE10=Still A Feel
TTITLE11=I Can't Be Satisfied
TTITLE12=Crawlin' Kingsnake
TTITLE13=Mannish Boy
EXTD=
EXTT0=
EXTT1=
EXTT2=
EXTT3=
EXTT4=
EXTT5=
EXTT6=
EXTT7=
EXTT8=
EXTT9=
EXTT10=
EXTT11=
EXTT12=
EXTT13=
PLAYORDER=
